<svg xmlns="http://www.w3.org/2000/svg" viewBox="0 0 23 42.58"><defs><style>.cls-1{fill:#fff;}</style></defs><g id="Layer_2" data-name="Layer 2"><g id="Layer_1-2" data-name="Layer 1"><g id="facebook"><path id="Path_5" data-name="Path 5" class="cls-1" d="M22.15,0H16.62C10.43,0,6.41,4.11,6.41,10.48V15.3H.88a.88.88,0,0,0-.88.88v7a.88.88,0,0,0,.88.88H6.41V41.69a.9.9,0,0,0,.89.89h7.25a.88.88,0,0,0,.88-.89V24h6.5a.88.88,0,0,0,.88-.89v-7a.9.9,0,0,0-.88-.89H15.39V11.19c0-1.95.48-3,3-3h3.72A.9.9,0,0,0,23,7.34V.89A.87.87,0,0,0,22.18,0h0Z"/></g></g></g></svg>