<svg xmlns="http://www.w3.org/2000/svg" viewBox="0 0 42.54 42.54"><defs><style>.cls-1{fill:#fff;}</style></defs><g id="Layer_2" data-name="Layer 2"><g id="Layer_1-2" data-name="Layer 1"><g id="instagram"><path id="Path_6" data-name="Path 6" class="cls-1" d="M42.43,12.51a15.5,15.5,0,0,0-1-5.17,10.89,10.89,0,0,0-6.22-6.22,15.7,15.7,0,0,0-5.16-1C27.78,0,27.05,0,21.27,0s-6.5,0-8.76.12a15.51,15.51,0,0,0-5.17,1A10.89,10.89,0,0,0,1.12,7.34a15.65,15.65,0,0,0-1,5.16C0,14.78,0,15.49,0,21.27S0,27.78.12,30a15.41,15.41,0,0,0,1,5.16,10.78,10.78,0,0,0,6.21,6.22,15.5,15.5,0,0,0,5.17,1c2.26.1,3,.13,8.77.13s6.5,0,8.76-.13a15.26,15.26,0,0,0,5.17-1,10.83,10.83,0,0,0,6.22-6.22,15.5,15.5,0,0,0,1-5.17c.11-2.27.13-3,.13-8.76S42.53,14.78,42.43,12.51ZM38.61,29.88a11.82,11.82,0,0,1-.74,3.95,7.05,7.05,0,0,1-4,4,11.56,11.56,0,0,1-3.95.73c-2.25.1-2.91.13-8.59.13s-6.36,0-8.59-.13a11.51,11.51,0,0,1-3.94-.73,6.42,6.42,0,0,1-2.44-1.59,6.57,6.57,0,0,1-1.59-2.44,11.82,11.82,0,0,1-.74-4C3.9,27.65,3.87,27,3.87,21.3s0-6.36.12-8.59a11.81,11.81,0,0,1,.74-3.94A6.34,6.34,0,0,1,6.32,6.32,6.83,6.83,0,0,1,8.76,4.73a11.85,11.85,0,0,1,4-.73c2.25-.1,2.91-.13,8.59-.13s6.36,0,8.59.13a11.61,11.61,0,0,1,4,.73,6.57,6.57,0,0,1,2.44,1.59,6.63,6.63,0,0,1,1.58,2.45,11.82,11.82,0,0,1,.74,4c.1,2.24.12,2.91.12,8.59s0,6.33-.12,8.58Z"/><path id="Path_7" data-name="Path 7" class="cls-1" d="M21.27,10.35A10.93,10.93,0,1,0,32.21,21.27h0A10.94,10.94,0,0,0,21.27,10.35Zm0,18a7.1,7.1,0,1,1,7.1-7.09,7.1,7.1,0,0,1-7.1,7.09Z"/><path id="Path_8" data-name="Path 8" class="cls-1" d="M35.19,9.92a2.55,2.55,0,1,1-2.55-2.55h0A2.55,2.55,0,0,1,35.19,9.92Z"/></g></g></g></svg>