<svg xmlns="http://www.w3.org/2000/svg" viewBox="0 0 48 48.03"><defs><style>.cls-1{fill:#fff;}</style></defs><g id="Layer_2" data-name="Layer 2"><g id="Layer_1-2" data-name="Layer 1"><path class="cls-1" d="M0,44.75v-42A5.76,5.76,0,0,1,3,0H45.22C47.37.94,48,2.6,48,4.89c-.07,12.83,0,25.66,0,38.49C48,46.44,46.4,48,43.36,48,30.66,48,18,48,5.27,48,2.7,48,.94,47.15,0,44.75ZM4.06,4.06C4,4.4,4,4.6,4,4.81q0,19.05,0,38.1c0,1.2.65,1.1,1.42,1.09h37.2c.44,0,.88,0,1.3-.06V4.06Z"/><path class="cls-1" d="M25.8,18.71l.12,2.47a2,2,0,0,0,.39-.21c2.13-2.77,5-3.34,8.15-2.5s4.78,3.24,5.24,6.33A45.57,45.57,0,0,1,40,30.65c0,3.07,0,6.14,0,9.28H33.17c0-.43-.06-.87-.06-1.31,0-3.2,0-6.41,0-9.61A17,17,0,0,0,33,26.64a3.25,3.25,0,0,0-3.35-3.05A3.68,3.68,0,0,0,26,26.77a44.72,44.72,0,0,0-.12,4.49c0,2.86,0,5.73,0,8.67H19.09V18.71Z"/><path class="cls-1" d="M14.72,40H8.08V18.69h6.64Z"/><path class="cls-1" d="M11.67,15.36A3.53,3.53,0,0,1,8,11.68,3.56,3.56,0,0,1,11.69,8a3.54,3.54,0,0,1,3.68,3.69A3.55,3.55,0,0,1,11.67,15.36Z"/></g></g></svg>